<svg id="Warstwa_1" data-name="Warstwa 1" xmlns="http://www.w3.org/2000/svg" viewBox="0 0 257.66 330.72"><defs><style>.cls-1{fill:#f7cfbe;}.cls-2{fill:#fff;}.cls-3{fill:#ff9c77;}.cls-4{fill:#c93d3e;}</style></defs><path class="cls-1" d="M207.83,240.15,1.7,244.21a303.63,303.63,0,0,1,11-119,410.57,410.57,0,0,1,187-3.88A205,205,0,0,1,211,165.85,207.09,207.09,0,0,1,207.83,240.15Z"/><ellipse cx="86.82" cy="140.59" rx="15.25" ry="14.33"/><ellipse cx="126.69" cy="140.59" rx="15.25" ry="14.33"/><path class="cls-2" d="M212.4,271.42a39,39,0,0,1-12.73,28.91,114.81,114.81,0,0,1-20.95,15.13c-25.17,14.16-48.66,14.67-68.32,15.1-19.47.43-43.15.94-69.48-12a120.76,120.76,0,0,1-27-18.21A39.15,39.15,0,0,1,.85,271.13v-30A39.17,39.17,0,0,1,21.2,206.78,141.67,141.67,0,0,1,43.43,197c19.21-6.52,33.84-6.79,62.32-7.06,36.58-.35,56.32-.31,78.78,10.74a109.15,109.15,0,0,1,9.81,5.47,38.89,38.89,0,0,1,18.06,33Z"/><ellipse class="cls-2" cx="130.09" cy="147.46" rx="6.37" ry="4.61"/><ellipse class="cls-2" cx="90.17" cy="147.25" rx="6.37" ry="4.61"/><rect class="cls-3" x="89.77" y="153.45" width="34.28" height="35.03" rx="13.49"/><path d="M139.38,227.21a48.73,48.73,0,0,1-64.94-.2q.06-8,.1-16h64.64Q139.29,219.13,139.38,227.21Z"/><path class="cls-4" d="M125.78,235.69a48.2,48.2,0,0,1-48.28-6.17A40.8,40.8,0,0,1,106,224.83,39.93,39.93,0,0,1,125.78,235.69Z"/><path d="M97.56,233.33"/><path class="cls-4" d="M202.34,89.59,10.92,88.82c.18-9.19,1.91-33.51,19.35-55.36C57.65-.84,101-.44,112.13.14c9.24.48,43.37,2.24,68.14,30.61C200.77,54.23,202.21,81.42,202.34,89.59Z"/><path class="cls-2" d="M201.17,126.37A366,366,0,0,0,11.5,127a22.14,22.14,0,0,1-7-7.16c-2.77-4.64-2.94-9-3.1-13.17C1.26,102.14,1,96.55,4.34,90.75A23.64,23.64,0,0,1,11.5,83a299.67,299.67,0,0,1,33.29-7.16C63.67,72.9,77.7,72.69,105,72.38c31.44-.35,47.6-.45,69.26,3.08,11.09,1.81,20.16,4,26.35,5.62a26.6,26.6,0,0,1,8.71,9.29,27.93,27.93,0,0,1,3.27,14.71c0,4.31-.11,11.92-5.59,17.42A18.19,18.19,0,0,1,201.17,126.37Z"/><path class="cls-4" d="M248.37,199.3l-36.69,2.5a214.63,214.63,0,0,0-3.28-47,213.21,213.21,0,0,0-7.23-28.44l11.39-20.27A203.07,203.07,0,0,1,231,132.67c3.63,6.25,7.9,13.58,11.29,22.76A106.64,106.64,0,0,1,248.37,199.3Z"/><circle class="cls-2" cx="232.37" cy="214.21" r="25.29"/></svg>