<?xml version="1.0" encoding="utf-8"?>
<!-- Generator: Adobe Illustrator 25.2.1, SVG Export Plug-In . SVG Version: 6.00 Build 0)  -->
<svg version="1.1" id="Warstwa_1" xmlns="http://www.w3.org/2000/svg" xmlns:xlink="http://www.w3.org/1999/xlink" x="0px" y="0px"
	 viewBox="0 0 299.8 330.7" style="enable-background:new 0 0 299.8 330.7;" xml:space="preserve">
<style type="text/css">
	.st0{display:none;fill:#485FD3;}
	.st1{fill:#F7CFBE;}
	.st2{fill:#FFFFFF;}
	.st3{fill:#FF9C77;}
	.st4{fill:#C93D3E;}
	.st5{fill:none;}
</style>
<rect y="0" class="st0" width="299.8" height="330.7"/>
<path class="st1" d="M250,240.1l-206.1,4.1c-4.3-40-0.5-80.5,11-119c61.2-15.7,125.2-17,187-3.9c5.4,14.4,9.2,29.3,11.3,44.5
	C256.6,190.6,255.5,215.8,250,240.1z"/>
<ellipse cx="129" cy="140.6" rx="15.2" ry="14.3"/>
<ellipse cx="168.9" cy="140.6" rx="15.2" ry="14.3"/>
<path class="st2" d="M254.6,271.4c0,11-4.6,21.5-12.7,28.9c-6.4,5.8-13.4,10.9-20.9,15.1c-25.2,14.2-48.7,14.7-68.3,15.1
	c-19.5,0.4-43.2,0.9-69.5-12c-9.8-4.8-18.9-10.9-27-18.2c-8.3-7.4-13.1-18.1-13.1-29.2v-30c0-14.3,7.8-27.5,20.3-34.4
	c7.1-3.9,14.6-7.2,22.2-9.8c19.2-6.5,33.8-6.8,62.3-7.1c36.6-0.4,56.3-0.3,78.8,10.7c3.4,1.7,6.6,3.5,9.8,5.5
	c11.3,7.2,18.1,19.6,18.1,33V271.4z"/>
<ellipse class="st2" cx="172.3" cy="147.5" rx="6.4" ry="4.6"/>
<ellipse class="st2" cx="132.3" cy="147.2" rx="6.4" ry="4.6"/>
<path class="st3" d="M145.4,153.4h7.3c7.5,0,13.5,6,13.5,13.5v8c0,7.5-6,13.5-13.5,13.5h-7.3c-7.5,0-13.5-6-13.5-13.5v-8
	C131.9,159.5,138,153.4,145.4,153.4z"/>
<path d="M181.5,227.2c-18.5,16.5-46.5,16.4-64.9-0.2c0-5.3,0.1-10.7,0.1-16h64.6C181.4,216.4,181.5,221.8,181.5,227.2z"/>
<path class="st4" d="M167.9,235.7c-16,6.8-34.5,4.5-48.3-6.2c8.6-5,18.7-6.7,28.5-4.7C155.7,226.5,162.5,230.2,167.9,235.7z"/>
<path d="M139.7,233.3"/>
<path class="st4" d="M244.5,89.6L53.1,88.8c0.2-9.2,1.9-33.5,19.4-55.4C99.8-0.8,143.2-0.4,154.3,0.1c9.2,0.5,43.4,2.2,68.1,30.6
	C242.9,54.2,244.4,81.4,244.5,89.6z"/>
<path class="st2" d="M243.3,126.4c-62.2-16.5-127.6-16.2-189.7,0.6c-2.8-1.8-5.2-4.3-7-7.2c-2.8-4.6-2.9-9-3.1-13.2
	c-0.1-4.5-0.4-10.1,2.9-15.9c1.8-3.1,4.2-5.7,7.2-7.8c11-3,22.1-5.4,33.3-7.2c18.9-2.9,32.9-3.1,60.2-3.5
	c31.4-0.3,47.6-0.4,69.3,3.1c11.1,1.8,20.2,4,26.4,5.6c3.6,2.3,6.6,5.5,8.7,9.3c2.4,4.5,3.5,9.6,3.3,14.7c0,4.3-0.1,11.9-5.6,17.4
	C247.5,124.2,245.5,125.5,243.3,126.4z"/>
<path class="st4" d="M290.5,199.3l-36.7,2.5c0.6-15.7-0.5-31.5-3.3-47c-1.8-9.6-4.2-19.1-7.2-28.4l11.4-20.3
	c6.8,8.4,13,17.2,18.4,26.6c3.6,6.2,7.9,13.6,11.3,22.8C289.5,169.5,291.6,184.4,290.5,199.3z"/>
<circle class="st2" cx="274.5" cy="214.2" r="25.3"/>
<circle class="st5" cx="25.3" cy="214.2" r="25.3"/>
</svg>
